Title                            : Watchmen
Year                             : 2009
Genre                            : Action | Drama | Mystery | Sci-Fi | Thriller
iMDB URL                         : http://www.imdb.com/title/tt0409459/
Awards                           : 1 win & 1 nomination

Complete name                    : Watchmen.2009.Ultimate.Cut.BRRIP.H264-ZEKTORM.mp4
Format                           : MPEG-4
Format profile                   : Base Media
Codec ID                         : isom
File size                        : 2.30 GiB
Duration                         : 3h 35mn
Overall bit rate                 : 1529 Kbps
Subtitles                        : English (Format: srt)

Video
Format                           : AVC
Format/Info                      : Advanced Video Codec
Format profile                   : High@L4.1
Format settings, CABAC           : Yes
Codec ID                         : avc1
Codec ID/Info                    : Advanced Video Coding
Duration                         : 3h 35mn
Bit rate mode                    : Variable
Bit rate                         : 1231 Kbps
Width                            : 1280 pixels
Height                           : 528 pixels
Display aspect ratio             : 2.424
Frame rate mode                  : Constant
Frame rate                       : 23.976 fps
Resolution                       : 24 bits
Colorimetry                      : 4:2:0
Scan type                        : Progressive
Bits/(Pixel*Frame)               : 0.076
Stream size                      : 1.85 GiB (80%)
Title                            : Video
Writing library                  : x264

Audio #1
Format                           : AAC
Format/Info                      : Advanced Audio Codec
Format version                   : Version 4
Format profile                   : LC
Format settings, SBR             : Yes
Format settings, PS              : No
Codec ID                         : 40
Duration                         : 3h 35mn
Bit rate mode                    : Variable
Bit rate                         : 219 Kbps
Maximum bit rate                 : 265 Kbps
Channel(s)                       : 6 channels
Channel positions                : Front: L C R, Rear: L R, LFE
Sampling rate                    : 48.0 KHz
Resolution                       : 16 bits
Stream size                      : 337 MiB (14%)
Title                            : English
Language                         : English

Audio #2
Format                           : AAC
Format/Info                      : Advanced Audio Codec
Format version                   : Version 4
Format profile                   : LC
Format settings, SBR             : Yes
Format settings, PS              : No
Codec ID                         : 40
Duration                         : 3h 35mn
Bit rate mode                    : Variable
Bit rate                         : 75.9 Kbps
Maximum bit rate                 : 98.4 Kbps
Channel(s)                       : 2 channels
Channel positions                : L R
Sampling rate                    : 48.0 KHz
Resolution                       : 16 bits
Stream size                      : 117 MiB (5%)
Title                            : English
Language                         : English
